<?xml version="1.0" encoding="utf-8"?>
<!-- Generator: $$$/GeneralStr/196=Adobe Illustrator 27.6.0, SVG Export Plug-In . SVG Version: 6.00 Build 0)  -->
<svg version="1.1" id="Calque_1" xmlns="http://www.w3.org/2000/svg" xmlns:xlink="http://www.w3.org/1999/xlink" x="0px" y="0px"
	 viewBox="0 0 27 20" style="enable-background:new 0 0 27 20;" xml:space="preserve">
<style type="text/css">
	.st0{clip-path:url(#SVGID_00000169525416583334800150000009106021281680138641_);}
	.st1{fill:#FCBE00;}
</style>
<g id="Groupe_430" transform="translate(26.853 19.177) rotate(180)">
	<g>
		<defs>
			<rect id="SVGID_1_" x="-0.1" y="-0.4" width="26.9" height="19.2"/>
		</defs>
		<clipPath id="SVGID_00000147200322755500905120000012892545450177256603_">
			<use xlink:href="#SVGID_1_"  style="overflow:visible;"/>
		</clipPath>
		
			<g id="Groupe_427" transform="translate(0 0)" style="clip-path:url(#SVGID_00000147200322755500905120000012892545450177256603_);">
			<path id="Tracé_1035" class="st1" d="M26.2,10.6c0.8-0.8,0.8-2,0-2.8l-2.3-2.4l0,0l-5.1-5.1c-1-1-2.7-1.1-3.7-0.1S14,3.1,15,4.1
				c0,0,0,0,0.1,0.1l2.4,2.4H2.6c-1.5,0-2.6,1.2-2.6,2.6c0,1.5,1.2,2.6,2.6,2.6h14.9l-2.4,2.4c-1,1.1-1,2.7,0.1,3.7c1,1,2.6,1,3.6,0
				l5.1-5.1l0,0L26.2,10.6z"/>
		</g>
	</g>
</g>
</svg>
