<?xml version="1.0" encoding="utf-8"?>
<!-- Generator: $$$/GeneralStr/196=Adobe Illustrator 27.6.0, SVG Export Plug-In . SVG Version: 6.00 Build 0)  -->
<svg version="1.1" id="Calque_1" xmlns="http://www.w3.org/2000/svg" xmlns:xlink="http://www.w3.org/1999/xlink" x="0px" y="0px"
	 viewBox="0 0 26 18.4" style="enable-background:new 0 0 26 18.4;" xml:space="preserve">
<style type="text/css">
	.st0{fill:#FFFFFF;}
</style>
<g>
	<g id="Groupe_452">
		<path id="Tracé_1038" class="st0" d="M3,0.2c-1.3,0-2.4,1.1-2.4,2.4v13.2c0,1.3,1.1,2.4,2.4,2.4h20.4c1.3,0,2.4-1.1,2.4-2.4V2.6
			c0-1.3-1.1-2.4-2.4-2.4H3z M3,1.4h20.4c0.2,0,0.3,0,0.5,0.1L14,10c-0.5,0.5-1.3,0.5-1.7,0L2.5,1.5C2.6,1.4,2.8,1.4,3,1.4z
			 M1.8,2.4l9.7,8.4c1,0.8,2.4,0.8,3.3,0l9.7-8.4c0,0,0,0.1,0,0.1v13.2c0,0.7-0.5,1.2-1.2,1.2c0,0,0,0,0,0H3c-0.7,0-1.2-0.5-1.2-1.2
			c0,0,0,0,0,0V2.6C1.8,2.5,1.8,2.5,1.8,2.4z"/>
	</g>
</g>
</svg>
