<?xml version="1.0" encoding="utf-8"?>
<!-- Generator: $$$/GeneralStr/196=Adobe Illustrator 27.6.0, SVG Export Plug-In . SVG Version: 6.00 Build 0)  -->
<svg version="1.1" id="Calque_1" xmlns="http://www.w3.org/2000/svg" xmlns:xlink="http://www.w3.org/1999/xlink" x="0px" y="0px"
	 viewBox="0 0 23 30" style="enable-background:new 0 0 23 30;" xml:space="preserve">
<style type="text/css">
	.st0{fill:#FFFFFF;}
</style>
<g>
	<g id="Groupe_519_00000130642257774846122090000007777717472917312943_">
		<path id="Tracé_1046_00000114756281853034946390000000945526022027787454_" class="st0" d="M11.5,0c-0.7,0-1.2,0.6-1.2,1.2v19.3
			l-7.7-7.8c-0.5-0.5-1.3-0.5-1.8,0c-0.5,0.5-0.5,1.3,0,1.8l9.9,9.9c0.1,0.1,0.1,0.1,0.2,0.2h0.1l0.2,0.1h0.1c0.1,0,0.1,0,0.2,0
			c0.1,0,0.2,0,0.2,0c0.1,0,0.2,0,0.2,0c0.1,0,0.1,0,0.2,0H12l0.2-0.1h0.1l0.2-0.2l9.9-9.9c0.5-0.5,0.5-1.3,0-1.8
			c-0.5-0.5-1.2-0.5-1.7,0l-7.7,7.8V1.3C12.7,0.6,12.2,0,11.5,0"/>
		<path id="Tracé_1047_00000162342252116221366500000010846321161593531777_" class="st0" d="M1.6,30h19.8c0.7,0,1.2-0.6,1.2-1.2
			c0-0.7-0.6-1.2-1.2-1.2c0,0,0,0,0,0H1.6c-0.7,0-1.2,0.6-1.2,1.2C0.4,29.4,0.9,30,1.6,30"/>
	</g>
</g>
</svg>
