<?xml version="1.0" encoding="utf-8"?>
<!-- Generator: $$$/GeneralStr/196=Adobe Illustrator 27.6.0, SVG Export Plug-In . SVG Version: 6.00 Build 0)  -->
<svg version="1.1" id="Calque_1" xmlns="http://www.w3.org/2000/svg" xmlns:xlink="http://www.w3.org/1999/xlink" x="0px" y="0px"
	 viewBox="0 0 79 65" style="enable-background:new 0 0 79 65;" xml:space="preserve">
<style type="text/css">
	.st0{fill:#FCBE00;}
	.st1{clip-path:url(#SVGID_00000064343574750125569120000008236753049963742904_);}
</style>
<g id="Groupe_401" transform="translate(0 0)">
	<g>
		<g id="Groupe_400">
			<path id="Tracé_825" class="st0" d="M62.6,50.5c9.2-4.3,15.6-12.6,15.6-23.4V2.7c0-1.5-1.2-2.7-2.7-2.7c0,0,0,0,0,0L45.9,0
				C28.2,0.2,14,14.7,14.2,32.4c0,0,0,0,0,0v4.4C6.1,39.7,0.7,47.3,0.7,55.9c0,0,0,6.3,0,6.4c0,1.5,1.2,2.7,2.7,2.7h34.7
				C48.7,65,58.2,60.1,62.6,50.5 M38.1,59.5h-32v-3.6c0-8.2,6.7-14.9,14.9-14.9h30.3c7.5,0,13.7-6.1,13.7-13.6c0,0,0,0,0-0.1
				c0-4.3,0-11.4,0-11.4c0-1.5-1.2-2.7-2.7-2.7l-19.1-0.1c-8.8,0-15.9,7-16,15.8c0,0,0,0,0,0.1v6.5c-6.9,0-6.6,0-7.7,0.1v-3.2
				C19.5,17.7,31.2,5.6,45.9,5.5l26.9,0v21.6c0,11.9-9.7,20.5-21.5,20.5l-31.4-0.1c-1.5,0-2.7,1.2-2.7,2.7s1.2,2.7,2.7,2.7L51.3,53
				c1.2,0,2.4-0.1,3.6-0.2C50.8,57.7,44.8,59.5,38.1,59.5 M46.1,35.5v-4.9h4c1.5,0,2.7-1.2,2.7-2.7c0-1.5-1.2-2.7-2.7-2.7l0,0h-4.6
				c-2.7,0-4.9,2.2-4.9,4.9c0,0,0,0,0,0v5.4h-7.9V29c0-5.8,4.7-10.5,10.4-10.5c0,0,0,0,0.1,0l16.4,0.1c0,2.4,0,6.1,0,8.7
				c0,4.5-3.7,8.2-8.2,8.2c0,0,0,0,0,0L46.1,35.5z"/>
		</g>
	</g>
</g>
<g id="Groupe_403" transform="translate(0 0)">
	<g>
		<defs>
			<path id="SVGID_1_" d="M32.8,29c0-5.8,4.7-10.5,10.4-10.5c0,0,0,0,0.1,0l16.4,0.1c0,2.4,0,6.1,0,8.7c0,4.5-3.7,8.2-8.2,8.2
				c0,0,0,0,0,0h-5.3v-4.9h4c1.5,0,2.7-1.2,2.7-2.7c0-1.5-1.2-2.7-2.7-2.7l0,0h-4.6c-2.7,0-4.9,2.2-4.9,4.9c0,0,0,0,0,0v5.4h-7.9V29
				z M19.6,32.3C19.5,17.7,31.2,5.6,45.9,5.5l26.9,0v21.6c0,11.9-9.7,20.5-21.5,20.5l-31.4-0.1c-1.5,0-2.7,1.2-2.7,2.7
				s1.2,2.7,2.7,2.7L51.3,53c1.2,0,2.4-0.1,3.6-0.2c-4,5-10.1,6.8-16.7,6.8H6.2v-3.6c0-8.2,6.7-14.9,14.9-14.9h30.3
				c7.5,0,13.7-6.1,13.7-13.6c0,0,0,0,0-0.1c0-4.3,0-11.4,0-11.4c0-1.5-1.2-2.7-2.7-2.7l-19.1-0.1c-8.8,0-15.9,7-16,15.8
				c0,0,0,0.1,0,0.1v6.5c-6.9,0-6.6,0-7.7,0.1L19.6,32.3z M75.6,0L45.9,0C28.2,0.2,14,14.7,14.2,32.4c0,0,0,0,0,0v4.4
				C6.1,39.7,0.7,47.3,0.7,55.9c0,0,0,6.3,0,6.4c0,1.5,1.2,2.7,2.7,2.7h34.7c10.6,0,20.1-4.9,24.5-14.5c9.2-4.3,15.6-12.6,15.6-23.4
				V2.7C78.3,1.2,77.1,0,75.6,0z"/>
		</defs>
		<clipPath id="SVGID_00000121242453282393424670000017738154186500507777_">
			<use xlink:href="#SVGID_1_"  style="overflow:visible;"/>
		</clipPath>
		<g id="Groupe_402" style="clip-path:url(#SVGID_00000121242453282393424670000017738154186500507777_);">
			<path id="Tracé_826" class="st0" d="M59.1,35.5l0.6-1.1v1.1H59.1z"/>
			<path id="Tracé_827" class="st0" d="M58.1,35.5l1.6-2.7v1.7l-0.6,1.1L58.1,35.5z"/>
			<path id="Tracé_828" class="st0" d="M57.1,35.5l2.5-4.4v1.7l-1.6,2.7L57.1,35.5z"/>
			<path id="Tracé_829" class="st0" d="M56.2,35.5l3.5-6v1.7l-2.5,4.4L56.2,35.5z"/>
			<path id="Tracé_830" class="st0" d="M55.2,35.5l4.4-7.7v1.7l-3.5,6L55.2,35.5z"/>
			<path id="Tracé_831" class="st0" d="M54.3,35.5l5.4-9.4v1.7l-4.4,7.7H54.3z"/>
			<path id="Tracé_832" class="st0" d="M53.3,35.5l6.4-11v1.7l-5.4,9.4H53.3z"/>
			<path id="Tracé_833" class="st0" d="M52.3,35.5l7.3-12.7v1.7l-6.4,11H52.3z"/>
			<path id="Tracé_834" class="st0" d="M51.4,35.5l8.3-14.4v1.7l-7.3,12.7L51.4,35.5z"/>
			<path id="Tracé_835" class="st0" d="M50.4,35.5l9.3-16v1.7l-8.3,14.4H50.4z"/>
			<path id="Tracé_836" class="st0" d="M49.5,35.5l9.8-17h0.4v1l-9.3,16H49.5z"/>
			<path id="Tracé_837" class="st0" d="M48.5,35.5l9.8-17h1l-9.8,17H48.5z"/>
			<path id="Tracé_838" class="st0" d="M47.5,35.5l9.8-17h1l-9.8,17H47.5z"/>
			<path id="Tracé_839" class="st0" d="M46.6,35.5l9.8-17h1l-9.8,17H46.6z"/>
			<path id="Tracé_840" class="st0" d="M45.6,35.5l9.8-17h1l-9.8,17H45.6z"/>
			<path id="Tracé_841" class="st0" d="M44.7,35.5l9.8-17h1l-9.8,17H44.7z"/>
			<path id="Tracé_842" class="st0" d="M43.7,35.5l9.8-17h1l-9.8,17H43.7z"/>
			<path id="Tracé_843" class="st0" d="M42.7,35.5l9.8-17h1l-9.8,17H42.7z"/>
			<path id="Tracé_844" class="st0" d="M41.8,35.5l9.8-17h1l-9.8,17H41.8z"/>
			<path id="Tracé_845" class="st0" d="M40.8,35.5l9.8-17h1l-9.8,17H40.8z"/>
			<path id="Tracé_846" class="st0" d="M39.9,35.5l9.8-17h1l-9.8,17H39.9z"/>
			<path id="Tracé_847" class="st0" d="M38.9,35.5l9.8-17h1l-9.8,17H38.9z"/>
			<path id="Tracé_848" class="st0" d="M37.9,35.5l9.8-17h1l-9.8,17H37.9z"/>
			<path id="Tracé_849" class="st0" d="M37,35.5l9.8-17h1l-9.8,17H37z"/>
			<path id="Tracé_850" class="st0" d="M36,35.5l9.8-17h1l-9.8,17H36z"/>
			<path id="Tracé_851" class="st0" d="M35,35.5l9.8-17h1l-9.8,17H35z"/>
			<path id="Tracé_852" class="st0" d="M34.1,35.5l9.8-17h1l-9.8,17H34.1z"/>
			<path id="Tracé_853" class="st0" d="M33.1,35.5l9.8-17h1l-9.8,17H33.1z"/>
			<path id="Tracé_854" class="st0" d="M32.8,34.5l9.2-16h1l-9.8,17h-0.4V34.5z"/>
			<path id="Tracé_855" class="st0" d="M32.8,32.8L41,18.5h1l-9.2,16L32.8,32.8z"/>
			<path id="Tracé_856" class="st0" d="M32.8,31.2L40,18.5h1l-8.2,14.3V31.2z"/>
			<path id="Tracé_857" class="st0" d="M32.8,29.5l6.3-11h1l-7.3,12.6V29.5z"/>
			<path id="Tracé_858" class="st0" d="M32.8,27.8l5.4-9.3h1l-6.3,11V27.8z"/>
			<path id="Tracé_859" class="st0" d="M32.8,26.2l4.4-7.6h1l-5.4,9.3L32.8,26.2z"/>
			<path id="Tracé_860" class="st0" d="M32.8,24.5l3.4-6h1l-4.4,7.6V24.5z"/>
			<path id="Tracé_861" class="st0" d="M32.8,22.9l2.5-4.3h1l-3.4,6L32.8,22.9z"/>
			<path id="Tracé_862" class="st0" d="M32.8,21.2l1.5-2.6h1l-2.5,4.3L32.8,21.2z"/>
			<path id="Tracé_863" class="st0" d="M32.8,19.5l0.6-1h1l-1.5,2.6L32.8,19.5z"/>
			<path id="Tracé_864" class="st0" d="M33.3,18.5l-0.6,1v-1L33.3,18.5z"/>
			<path id="Tracé_865" class="st0" d="M63.4,59.5l9.4-16.2v16.2H63.4z"/>
			<path id="Tracé_866" class="st0" d="M62.5,59.5l10.3-17.9v1.7l-9.4,16.2L62.5,59.5z"/>
			<path id="Tracé_867" class="st0" d="M61.5,59.5L72.8,40v1.7L62.5,59.5L61.5,59.5z"/>
			<path id="Tracé_868" class="st0" d="M60.6,59.5l12.3-21.2V40L61.5,59.5H60.6z"/>
			<path id="Tracé_869" class="st0" d="M59.6,59.5l13.2-22.9v1.7L60.6,59.5H59.6z"/>
			<path id="Tracé_870" class="st0" d="M58.7,59.5L72.8,35v1.7L59.6,59.5H58.7z"/>
			<path id="Tracé_871" class="st0" d="M57.7,59.5l15.1-26.2V35L58.7,59.5H57.7z"/>
			<path id="Tracé_872" class="st0" d="M56.7,59.5l16.1-27.9v1.7L57.7,59.5H56.7z"/>
			<path id="Tracé_873" class="st0" d="M55.8,59.5L72.8,30v1.7L56.7,59.5L55.8,59.5z"/>
			<path id="Tracé_874" class="st0" d="M54.8,59.5l18-31.2V30L55.8,59.5H54.8z"/>
			<path id="Tracé_875" class="st0" d="M53.8,59.5l19-32.9v1.7l-18,31.2H53.8z"/>
			<path id="Tracé_876" class="st0" d="M52.9,59.5L72.8,25v1.7l-19,32.9H52.9z"/>
			<path id="Tracé_877" class="st0" d="M51.9,59.5l20.9-36.2V25L52.9,59.5H51.9z"/>
			<path id="Tracé_878" class="st0" d="M51,59.5l21.9-37.9v1.7L51.9,59.5L51,59.5z"/>
			<path id="Tracé_879" class="st0" d="M50,59.5L72.8,20v1.7L51,59.5H50z"/>
			<path id="Tracé_880" class="st0" d="M49,59.5l23.8-41.2V20L50,59.5H49z"/>
			<path id="Tracé_881" class="st0" d="M48.1,59.5l24.7-42.9v1.7L49,59.5L48.1,59.5z"/>
			<path id="Tracé_882" class="st0" d="M47.1,59.5L72.8,15v1.7L48.1,59.5H47.1z"/>
			<path id="Tracé_883" class="st0" d="M46.2,59.5l26.7-46.2V15L47.1,59.5H46.2z"/>
			<path id="Tracé_884" class="st0" d="M45.2,59.5l27.6-47.9v1.7L46.2,59.5H45.2z"/>
			<path id="Tracé_885" class="st0" d="M44.2,59.5L72.8,10v1.7L45.2,59.5H44.2z"/>
			<path id="Tracé_886" class="st0" d="M43.3,59.5L72.8,8.4V10L44.2,59.5H43.3z"/>
			<path id="Tracé_887" class="st0" d="M42.3,59.5L72.8,6.7v1.7L43.3,59.5H42.3z"/>
			<path id="Tracé_888" class="st0" d="M41.4,59.5L72.6,5.4h0.2v1.3L42.3,59.5H41.4z"/>
			<path id="Tracé_889" class="st0" d="M40.4,59.5L71.6,5.4h1L41.4,59.5H40.4z"/>
			<path id="Tracé_890" class="st0" d="M39.4,59.5L70.7,5.4h1L40.4,59.5H39.4z"/>
			<path id="Tracé_891" class="st0" d="M38.5,59.5L69.7,5.4h1L39.4,59.5H38.5z"/>
			<path id="Tracé_892" class="st0" d="M37.5,59.5L68.7,5.4h1L38.5,59.5H37.5z"/>
			<path id="Tracé_893" class="st0" d="M36.6,59.5L67.8,5.4h1L37.5,59.5L36.6,59.5z"/>
			<path id="Tracé_894" class="st0" d="M35.6,59.5L66.8,5.4h1L36.6,59.5H35.6z"/>
			<path id="Tracé_895" class="st0" d="M34.6,59.5L65.9,5.4h1L35.6,59.5H34.6z"/>
			<path id="Tracé_896" class="st0" d="M33.7,59.5L64.9,5.4h1L34.6,59.5H33.7z"/>
			<path id="Tracé_897" class="st0" d="M32.7,59.5L63.9,5.4h1L33.7,59.5L32.7,59.5z"/>
			<path id="Tracé_898" class="st0" d="M31.8,59.5L63,5.4h1L32.7,59.5H31.8z"/>
			<path id="Tracé_899" class="st0" d="M30.8,59.5L62,5.4h1L31.8,59.5H30.8z"/>
			<path id="Tracé_900" class="st0" d="M29.8,59.5L61.1,5.4h1L30.8,59.5H29.8z"/>
			<path id="Tracé_901" class="st0" d="M28.9,59.5L60.1,5.4h1L29.8,59.5H28.9z"/>
			<path id="Tracé_902" class="st0" d="M27.9,59.5L59.1,5.4h1L28.9,59.5H27.9z"/>
			<path id="Tracé_903" class="st0" d="M27,59.5L58.2,5.4h1L27.9,59.5L27,59.5z"/>
			<path id="Tracé_904" class="st0" d="M26,59.5L57.2,5.4h1L27,59.5H26z"/>
			<path id="Tracé_905" class="st0" d="M25,59.5L56.3,5.4h1L26,59.5H25z"/>
			<path id="Tracé_906" class="st0" d="M24.1,59.5L55.3,5.4h1L25,59.5H24.1z"/>
			<path id="Tracé_907" class="st0" d="M23.1,59.5L54.3,5.4h1L24.1,59.5H23.1z"/>
			<path id="Tracé_908" class="st0" d="M22.1,59.5L53.4,5.4h1L23.1,59.5H22.1z"/>
			<path id="Tracé_909" class="st0" d="M21.2,59.5L52.4,5.4h1L22.1,59.5H21.2z"/>
			<path id="Tracé_910" class="st0" d="M20.2,59.5L51.5,5.4h1L21.2,59.5H20.2z"/>
			<path id="Tracé_911" class="st0" d="M19.3,59.5L50.5,5.4h1L20.2,59.5H19.3z"/>
			<path id="Tracé_912" class="st0" d="M18.3,59.5L49.5,5.4h1L19.3,59.5H18.3z"/>
			<path id="Tracé_913" class="st0" d="M17.3,59.5L48.6,5.4h1L18.3,59.5H17.3z"/>
			<path id="Tracé_914" class="st0" d="M16.4,59.5L47.6,5.4h1L17.3,59.5H16.4z"/>
			<path id="Tracé_915" class="st0" d="M15.4,59.5L46.7,5.4h1L16.4,59.5H15.4z"/>
			<path id="Tracé_916" class="st0" d="M14.5,59.5L45.7,5.4h1L15.4,59.5H14.5z"/>
			<path id="Tracé_917" class="st0" d="M13.5,59.5L44.7,5.4h1L14.5,59.5H13.5z"/>
			<path id="Tracé_918" class="st0" d="M12.5,59.5L43.8,5.4h1L13.5,59.5H12.5z"/>
			<path id="Tracé_919" class="st0" d="M11.6,59.5L42.8,5.4h1L12.5,59.5H11.6z"/>
			<path id="Tracé_920" class="st0" d="M10.6,59.5L41.9,5.4h1L11.6,59.5H10.6z"/>
			<path id="Tracé_921" class="st0" d="M9.7,59.5L40.9,5.4h1L10.6,59.5H9.7z"/>
			<path id="Tracé_922" class="st0" d="M8.7,59.5L39.9,5.4h1L9.7,59.5H8.7z"/>
			<path id="Tracé_923" class="st0" d="M7.7,59.5L39,5.4h1L8.7,59.5H7.7z"/>
			<path id="Tracé_924" class="st0" d="M6.8,59.5L38,5.4h1L7.7,59.5H6.8z"/>
			<path id="Tracé_925" class="st0" d="M6.2,58.9L37,5.4h1L6.8,59.5H6.2L6.2,58.9z"/>
			<path id="Tracé_926" class="st0" d="M6.2,57.3L36.1,5.4h1L6.2,58.9V57.3z"/>
			<path id="Tracé_927" class="st0" d="M6.2,55.6l29-50.1h1L6.2,57.3V55.6z"/>
			<path id="Tracé_928" class="st0" d="M6.2,53.9l28-48.5h1l-29,50.1V53.9z"/>
			<path id="Tracé_929" class="st0" d="M6.2,52.3l27-46.8h1l-28,48.5V52.3z"/>
			<path id="Tracé_930" class="st0" d="M6.2,50.6L32.2,5.4h1l-27,46.8V50.6z"/>
			<path id="Tracé_931" class="st0" d="M6.2,48.9L31.3,5.4h1L6.2,50.6V48.9z"/>
			<path id="Tracé_932" class="st0" d="M6.2,47.3L30.3,5.4h1L6.2,48.9V47.3z"/>
			<path id="Tracé_933" class="st0" d="M6.2,45.6L29.4,5.4h1L6.2,47.3V45.6z"/>
			<path id="Tracé_934" class="st0" d="M6.2,43.9L28.4,5.4h1L6.2,45.6V43.9z"/>
			<path id="Tracé_935" class="st0" d="M6.2,42.3L27.4,5.4h1L6.2,43.9V42.3z"/>
			<path id="Tracé_936" class="st0" d="M6.2,40.6L26.5,5.4h1L6.2,42.3V40.6z"/>
			<path id="Tracé_937" class="st0" d="M6.2,39L25.5,5.4h1L6.2,40.6V39z"/>
			<path id="Tracé_938" class="st0" d="M6.2,37.3L24.6,5.4h1L6.2,39V37.3z"/>
			<path id="Tracé_939" class="st0" d="M24.6,5.4L6.2,37.3V5.4H24.6z"/>
			<path id="Tracé_940" class="st0" d="M60.3,65l18-31.1V65H60.3z"/>
			<path id="Tracé_941" class="st0" d="M59.3,65l18.9-32.8v1.7L60.3,65H59.3z"/>
			<path id="Tracé_942" class="st0" d="M58.4,65l19.9-34.4v1.7L59.3,65H58.4z"/>
			<path id="Tracé_943" class="st0" d="M57.4,65l20.9-36.1v1.7L58.4,65H57.4z"/>
			<path id="Tracé_944" class="st0" d="M56.5,65l21.8-37.8v1.7L57.4,65H56.5z"/>
			<path id="Tracé_945" class="st0" d="M55.5,65l22.8-39.4v1.7L56.5,65H55.5z"/>
			<path id="Tracé_946" class="st0" d="M54.5,65l23.7-41.1v1.7L55.5,65H54.5z"/>
			<path id="Tracé_947" class="st0" d="M53.6,65l24.7-42.8v1.7L54.5,65L53.6,65z"/>
			<path id="Tracé_948" class="st0" d="M52.6,65l25.6-44.4v1.7L53.6,65H52.6z"/>
			<path id="Tracé_949" class="st0" d="M51.7,65l26.6-46.1v1.7L52.6,65H51.7z"/>
			<path id="Tracé_950" class="st0" d="M50.7,65l27.6-47.8v1.7L51.7,65H50.7z"/>
			<path id="Tracé_951" class="st0" d="M49.7,65l28.5-49.4v1.7L50.7,65H49.7z"/>
			<path id="Tracé_952" class="st0" d="M48.8,65l29.5-51.1v1.7L49.7,65H48.8z"/>
			<path id="Tracé_953" class="st0" d="M47.8,65l30.5-52.7v1.7L48.8,65H47.8z"/>
			<path id="Tracé_954" class="st0" d="M46.9,65l31.4-54.4v1.7L47.8,65H46.9z"/>
			<path id="Tracé_955" class="st0" d="M45.9,65L78.3,8.9v1.7L46.9,65H45.9z"/>
			<path id="Tracé_956" class="st0" d="M44.9,65L78.3,7.2v1.7L45.9,65H44.9z"/>
			<path id="Tracé_957" class="st0" d="M44,65L78.3,5.6v1.7L44.9,65H44z"/>
			<path id="Tracé_958" class="st0" d="M43,65L78.3,3.9v1.7L44,65L43,65z"/>
			<path id="Tracé_959" class="st0" d="M42.1,65L78.3,2.3v1.7L43,65H42.1z"/>
			<path id="Tracé_960" class="st0" d="M41.1,65L78.3,0.6v1.7L42.1,65H41.1z"/>
			<path id="Tracé_961" class="st0" d="M40.1,65L77.7,0h0.6v0.6L41.1,65L40.1,65z"/>
			<path id="Tracé_962" class="st0" d="M39.2,65L76.7,0h1L40.1,65H39.2z"/>
			<path id="Tracé_963" class="st0" d="M38.2,65L75.7,0h1L39.2,65H38.2z"/>
			<path id="Tracé_964" class="st0" d="M37.3,65L74.8,0h1L38.2,65H37.3z"/>
			<path id="Tracé_965" class="st0" d="M36.3,65L73.8,0h1L37.3,65H36.3z"/>
			<path id="Tracé_966" class="st0" d="M35.3,65L72.9,0h1L36.3,65H35.3z"/>
			<path id="Tracé_967" class="st0" d="M34.4,65L71.9,0h1L35.3,65H34.4z"/>
			<path id="Tracé_968" class="st0" d="M33.4,65L70.9,0h1L34.4,65H33.4z"/>
			<path id="Tracé_969" class="st0" d="M32.5,65L70,0h1L33.4,65H32.5z"/>
			<path id="Tracé_970" class="st0" d="M31.5,65L69,0h1L32.5,65H31.5z"/>
			<path id="Tracé_971" class="st0" d="M30.5,65L68.1,0h1L31.5,65H30.5z"/>
			<path id="Tracé_972" class="st0" d="M29.6,65L67.1,0h1L30.5,65H29.6z"/>
			<path id="Tracé_973" class="st0" d="M28.6,65L66.1,0h1L29.6,65H28.6z"/>
			<path id="Tracé_974" class="st0" d="M27.6,65L65.2,0h1L28.6,65H27.6z"/>
			<path id="Tracé_975" class="st0" d="M26.7,65L64.2,0h1L27.6,65H26.7z"/>
			<path id="Tracé_976" class="st0" d="M25.7,65L63.2,0h1L26.7,65H25.7z"/>
			<path id="Tracé_977" class="st0" d="M24.8,65L62.3,0h1L25.7,65H24.8z"/>
			<path id="Tracé_978" class="st0" d="M23.8,65L61.3,0h1L24.8,65H23.8z"/>
			<path id="Tracé_979" class="st0" d="M22.8,65L60.4,0h1L23.8,65H22.8z"/>
			<path id="Tracé_980" class="st0" d="M21.9,65L59.4,0h1L22.8,65H21.9z"/>
			<path id="Tracé_981" class="st0" d="M20.9,65L58.4,0h1L21.9,65H20.9z"/>
			<path id="Tracé_982" class="st0" d="M20,65L57.5,0h1L20.9,65H20z"/>
			<path id="Tracé_983" class="st0" d="M19,65L56.5,0h1L20,65H19z"/>
			<path id="Tracé_984" class="st0" d="M18,65L55.6,0h1L19,65H18z"/>
			<path id="Tracé_985" class="st0" d="M17.1,65L54.6,0h1L18,65H17.1z"/>
			<path id="Tracé_986" class="st0" d="M16.1,65L53.6,0h1L17.1,65H16.1z"/>
			<path id="Tracé_987" class="st0" d="M15.2,65L52.7,0h1L16.1,65H15.2z"/>
			<path id="Tracé_988" class="st0" d="M14.2,65L51.7,0h1L15.2,65H14.2z"/>
			<path id="Tracé_989" class="st0" d="M13.2,65L50.8,0h1L14.2,65H13.2z"/>
			<path id="Tracé_990" class="st0" d="M12.3,65L49.8,0h1L13.2,65H12.3z"/>
			<path id="Tracé_991" class="st0" d="M11.3,65L48.8,0h1L12.3,65H11.3z"/>
			<path id="Tracé_992" class="st0" d="M10.4,65L47.9,0h1L11.3,65H10.4z"/>
			<path id="Tracé_993" class="st0" d="M9.4,65L46.9,0h1L10.4,65H9.4z"/>
			<path id="Tracé_994" class="st0" d="M8.4,65L46,0h1L9.4,65H8.4z"/>
			<path id="Tracé_995" class="st0" d="M7.5,65L45,0h1L8.4,65H7.5z"/>
			<path id="Tracé_996" class="st0" d="M6.5,65L44,0h1L7.5,65H6.5z"/>
			<path id="Tracé_997" class="st0" d="M5.6,65L43.1,0h1L6.5,65H5.6z"/>
			<path id="Tracé_998" class="st0" d="M4.6,65L42.1,0h1L5.6,65H4.6z"/>
			<path id="Tracé_999" class="st0" d="M3.6,65L41.2,0h1L4.6,65H3.6z"/>
			<path id="Tracé_1000" class="st0" d="M2.7,65L40.2,0h1L3.6,65H2.7z"/>
			<path id="Tracé_1001" class="st0" d="M1.7,65L39.2,0h1L2.7,65H1.7z"/>
			<path id="Tracé_1002" class="st0" d="M0.8,65L38.3,0h1L1.7,65H0.8z"/>
			<path id="Tracé_1003" class="st0" d="M0.7,63.4L37.3,0h1L0.8,65h0V63.4z"/>
			<path id="Tracé_1004" class="st0" d="M0.7,61.7L36.4,0h1L0.7,63.4V61.7z"/>
			<path id="Tracé_1005" class="st0" d="M0.7,60L35.4,0h1L0.7,61.7V60z"/>
			<path id="Tracé_1006" class="st0" d="M0.7,58.4L34.4,0h1L0.7,60V58.4z"/>
			<path id="Tracé_1007" class="st0" d="M0.7,56.7L33.5,0h1L0.7,58.4V56.7z"/>
			<path id="Tracé_1008" class="st0" d="M0.7,55L32.5,0h1L0.7,56.7V55z"/>
			<path id="Tracé_1009" class="st0" d="M0.7,53.4L31.5,0h1L0.7,55V53.4z"/>
			<path id="Tracé_1010" class="st0" d="M0.7,51.7L30.6,0h1L0.7,53.4V51.7z"/>
			<path id="Tracé_1011" class="st0" d="M0.7,50.1L29.6,0h1L0.7,51.7V50.1z"/>
			<path id="Tracé_1012" class="st0" d="M0.7,48.4L28.7,0h1L0.7,50.1V48.4z"/>
			<path id="Tracé_1013" class="st0" d="M0.7,46.7L27.7,0h1L0.7,48.4V46.7z"/>
			<path id="Tracé_1014" class="st0" d="M27.7,0l-27,46.7V0H27.7z"/>
		</g>
	</g>
</g>
</svg>
