<?xml version="1.0" encoding="utf-8"?>
<!-- Generator: $$$/GeneralStr/196=Adobe Illustrator 27.6.0, SVG Export Plug-In . SVG Version: 6.00 Build 0)  -->
<svg version="1.1" id="Calque_1" xmlns="http://www.w3.org/2000/svg" xmlns:xlink="http://www.w3.org/1999/xlink" x="0px" y="0px"
	 viewBox="0 0 94 79" style="enable-background:new 0 0 94 79;" xml:space="preserve">
<style type="text/css">
	.st0{clip-path:url(#SVGID_00000091709174690157648180000003786183533156521892_);}
	.st1{fill:#44B389;}
</style>
<g id="Groupe_403">
	<g>
		<g>
			<defs>
				<path id="SVGID_1_" d="M38.8,35.3c0-7,5.7-12.7,12.7-12.7c0,0,0,0,0.1,0l19.8,0.1c0,3,0,7.3,0,10.5c0,5.5-4.5,10-10,10l0,0H55
					v-6h4.9c1.8,0,3.3-1.5,3.3-3.3s-1.5-3.3-3.3-3.3h-5.5c-3.3,0-6,2.7-6,6l0,0v6.6h-9.6C38.8,43.2,38.8,35.3,38.8,35.3z M22.9,39.3
					C22.7,21.5,37,7,54.8,6.7h32.6v26.2c0,14.4-11.7,24.8-26.1,24.8l-38.1-0.1c-1.8,0-3.3,1.5-3.3,3.3s1.5,3.3,3.3,3.3l38.1,0.1
					c1.4,0,2.9-0.1,4.3-0.3c-4.9,6-12.2,8.2-20.3,8.2H6.6v-4.4c0-10,8.1-18.1,18.1-18.1h36.7c9.2,0,16.6-7.4,16.6-16.5v-0.1
					c0-5.2,0-13.8,0-13.8c0-1.8-1.5-3.3-3.3-3.3l-23.1,0c-10.7,0-19.3,8.6-19.4,19.2v0.1v7.9c-8.4,0-8,0-9.3,0.1L22.9,39.3z
					 M90.7,0.1h-36C33.3,0.4,16.1,17.9,16.3,39.4v5.3C6.5,48.2,0,57.5,0,67.9c0,0,0,7.6,0,7.7c0,1.8,1.5,3.3,3.3,3.3l0,0h42
					c12.8,0,24.4-6,29.7-17.5C86.2,56.2,94,46.1,94,33V3.4C94,1.6,92.5,0.1,90.7,0.1L90.7,0.1z"/>
			</defs>
			<use xlink:href="#SVGID_1_"  style="overflow:visible;fill:#44B389;"/>
			<clipPath id="SVGID_00000171716777691906039170000009772614707215918001_">
				<use xlink:href="#SVGID_1_"  style="overflow:visible;"/>
			</clipPath>
			<g id="Groupe_402" style="clip-path:url(#SVGID_00000171716777691906039170000009772614707215918001_);">
				<path id="Tracé_826" class="st1" d="M70.7,43.2l0.7-1.3v1.3H70.7z"/>
				<path id="Tracé_827" class="st1" d="M69.5,43.2l1.9-3.3v2l-0.7,1.3H69.5z"/>
				<path id="Tracé_828" class="st1" d="M68.4,43.2l3.1-5.3v2l-1.9,3.3H68.4z"/>
				<path id="Tracé_829" class="st1" d="M67.2,43.2l4.2-7.3v2l-3.1,5.3H67.2z"/>
				<path id="Tracé_830" class="st1" d="M66.1,43.2l5.4-9.3v2l-4.2,7.3H66.1z"/>
				<path id="Tracé_831" class="st1" d="M64.9,43.2l6.6-11.4v2l-5.4,9.3L64.9,43.2L64.9,43.2z"/>
				<path id="Tracé_832" class="st1" d="M63.7,43.2l7.7-13.4v2l-6.6,11.4H63.7z"/>
				<path id="Tracé_833" class="st1" d="M62.6,43.2l8.9-15.4v2l-7.7,13.4H62.6z"/>
				<path id="Tracé_834" class="st1" d="M61.4,43.2l10.1-17.4v2l-8.9,15.4H61.4z"/>
				<path id="Tracé_835" class="st1" d="M60.2,43.2l11.2-19.4v2l-10,17.4H60.2z"/>
				<path id="Tracé_836" class="st1" d="M59.1,43.2L71,22.6h0.5v1.2L60.2,43.2H59.1z"/>
				<path id="Tracé_837" class="st1" d="M57.9,43.2l11.9-20.6H71L59.1,43.2H57.9z"/>
				<path id="Tracé_838" class="st1" d="M56.7,43.2l11.9-20.6h1.2L57.9,43.2H56.7z"/>
				<path id="Tracé_839" class="st1" d="M55.6,43.2l11.9-20.6h1.2l-12,20.6H55.6z"/>
				<path id="Tracé_840" class="st1" d="M54.4,43.2l11.9-20.6h1.2L55.6,43.2H54.4z"/>
				<path id="Tracé_841" class="st1" d="M53.2,43.2l11.9-20.6h1.2L54.4,43.2H53.2z"/>
				<path id="Tracé_842" class="st1" d="M52.1,43.2L64,22.6h1.2l-12,20.6H52.1z"/>
				<path id="Tracé_843" class="st1" d="M50.9,43.2l11.9-20.6H64L52.1,43.2H50.9z"/>
				<path id="Tracé_844" class="st1" d="M49.8,43.2l11.9-20.6h1.2l-12,20.6H49.8z"/>
				<path id="Tracé_845" class="st1" d="M48.6,43.2l11.9-20.6h1.2L49.8,43.2H48.6z"/>
				<path id="Tracé_846" class="st1" d="M47.4,43.2l11.9-20.6h1.2L48.6,43.2H47.4z"/>
				<path id="Tracé_847" class="st1" d="M46.3,43.2l11.9-20.6h1.2l-12,20.6H46.3z"/>
				<path id="Tracé_848" class="st1" d="M45.1,43.2L57,22.6h1.2L46.3,43.2H45.1z"/>
				<path id="Tracé_849" class="st1" d="M43.9,43.2l11.9-20.6H57L45.1,43.2H43.9z"/>
				<path id="Tracé_850" class="st1" d="M42.8,43.2l11.9-20.6h1.2l-12,20.6H42.8z"/>
				<path id="Tracé_851" class="st1" d="M41.6,43.2l11.9-20.6h1.2L42.8,43.2H41.6z"/>
				<path id="Tracé_852" class="st1" d="M40.4,43.2l11.9-20.6h1.2L41.6,43.2H40.4z"/>
				<path id="Tracé_853" class="st1" d="M39.3,43.2l11.9-20.6h1.2l-12,20.6H39.3z"/>
				<path id="Tracé_854" class="st1" d="M38.8,41.9L50,22.6h1.2L39.3,43.2h-0.4L38.8,41.9z"/>
				<path id="Tracé_855" class="st1" d="M38.8,39.9l10-17.3H50L38.8,41.9V39.9z"/>
				<path id="Tracé_856" class="st1" d="M38.8,37.9l8.8-15.3h1.2l-10,17.3V37.9z"/>
				<path id="Tracé_857" class="st1" d="M38.8,35.9l7.7-13.3h1.2l-8.8,15.3L38.8,35.9z"/>
				<path id="Tracé_858" class="st1" d="M38.8,33.9l6.5-11.3h1.2l-7.7,13.3V33.9z"/>
				<path id="Tracé_859" class="st1" d="M38.8,31.8l5.3-9.3h1.2l-6.5,11.3V31.8z"/>
				<path id="Tracé_860" class="st1" d="M38.8,29.8l4.2-7.2h1.2l-5.3,9.3L38.8,29.8z"/>
				<path id="Tracé_861" class="st1" d="M38.8,27.8l3-5.2H43l-4.2,7.2V27.8z"/>
				<path id="Tracé_862" class="st1" d="M38.8,25.8l1.8-3.2h1.2l-3,5.2V25.8z"/>
				<path id="Tracé_863" class="st1" d="M38.8,23.8l0.7-1.2h1.2l-1.8,3.2v-2H38.8z"/>
				<path id="Tracé_864" class="st1" d="M39.5,22.6l-0.7,1.2v-1.2H39.5z"/>
				<path id="Tracé_865" class="st1" d="M76,72.3l11.4-19.7v19.7H76z"/>
				<path id="Tracé_866" class="st1" d="M74.9,72.3l12.5-21.7v2L76,72.3H74.9z"/>
				<path id="Tracé_867" class="st1" d="M73.7,72.3l13.7-23.7v2L74.9,72.3H73.7z"/>
				<path id="Tracé_868" class="st1" d="M72.5,72.3l14.9-25.7v2L73.7,72.3H72.5z"/>
				<path id="Tracé_869" class="st1" d="M71.4,72.3l16-27.8v2L72.5,72.3H71.4z"/>
				<path id="Tracé_870" class="st1" d="M70.2,72.3l17.2-29.8v2l-16,27.8H70.2z"/>
				<path id="Tracé_871" class="st1" d="M69,72.3l18.4-31.8v2L70.2,72.3H69z"/>
				<path id="Tracé_872" class="st1" d="M67.9,72.3l19.5-33.8v2L69,72.3H67.9z"/>
				<path id="Tracé_873" class="st1" d="M66.7,72.3l20.7-35.8v2L67.9,72.3H66.7z"/>
				<path id="Tracé_874" class="st1" d="M65.6,72.3l21.8-37.8v2L66.7,72.3H65.6z"/>
				<path id="Tracé_875" class="st1" d="M64.4,72.3l23-39.9v2L65.6,72.3H64.4z"/>
				<path id="Tracé_876" class="st1" d="M63.2,72.3l24.2-41.9v2l-23,39.9H63.2z"/>
				<path id="Tracé_877" class="st1" d="M62.1,72.3l25.3-43.9v2L63.2,72.3H62.1z"/>
				<path id="Tracé_878" class="st1" d="M60.9,72.3l26.5-45.9v2L62.1,72.3H60.9z"/>
				<path id="Tracé_879" class="st1" d="M59.7,72.3l27.7-47.9v2L60.9,72.3H59.7z"/>
				<path id="Tracé_880" class="st1" d="M58.6,72.3l28.8-49.9v2L59.7,72.3H58.6z"/>
				<path id="Tracé_881" class="st1" d="M57.4,72.3l30-52v2l-28.8,50H57.4z"/>
				<path id="Tracé_882" class="st1" d="M56.2,72.3l31.2-54v2l-30,52H56.2z"/>
				<path id="Tracé_883" class="st1" d="M55.1,72.3l32.3-56v2l-31.2,54H55.1z"/>
				<path id="Tracé_884" class="st1" d="M53.9,72.3l33.5-58v2l-32.3,56H53.9z"/>
				<path id="Tracé_885" class="st1" d="M52.7,72.3l34.7-60v2l-33.5,58H52.7z"/>
				<path id="Tracé_886" class="st1" d="M51.6,72.3l35.8-62v2l-34.7,60H51.6z"/>
				<path id="Tracé_887" class="st1" d="M50.4,72.3l37-64.1v2l-35.8,62L50.4,72.3L50.4,72.3z"/>
				<path id="Tracé_888" class="st1" d="M49.3,72.3L87.1,6.7h0.3v1.5l-37,64.1C50.4,72.3,49.3,72.3,49.3,72.3z"/>
				<path id="Tracé_889" class="st1" d="M48.1,72.3L85.9,6.7h1.2L49.3,72.3H48.1z"/>
				<path id="Tracé_890" class="st1" d="M46.9,72.3L84.8,6.7H86L48.1,72.3H46.9z"/>
				<path id="Tracé_891" class="st1" d="M45.8,72.3L83.6,6.7h1.2L46.9,72.3H45.8z"/>
				<path id="Tracé_892" class="st1" d="M44.6,72.3L82.4,6.7h1.2L45.8,72.3H44.6z"/>
				<path id="Tracé_893" class="st1" d="M43.4,72.3L81.3,6.7h1.2L44.6,72.3H43.4z"/>
				<path id="Tracé_894" class="st1" d="M42.3,72.3L80.1,6.7h1.2L43.4,72.3H42.3z"/>
				<path id="Tracé_895" class="st1" d="M41.1,72.3L79,6.7h1.2L42.3,72.3H41.1z"/>
				<path id="Tracé_896" class="st1" d="M39.9,72.3L77.8,6.7H79L41.1,72.3H39.9z"/>
				<path id="Tracé_897" class="st1" d="M38.8,72.3L76.6,6.7h1.2L39.9,72.3H38.8z"/>
				<path id="Tracé_898" class="st1" d="M37.6,72.3L75.5,6.7h1.2L38.8,72.3H37.6z"/>
				<path id="Tracé_899" class="st1" d="M36.4,72.3L74.3,6.7h1.2L37.6,72.3H36.4z"/>
				<path id="Tracé_900" class="st1" d="M35.3,72.3L73.1,6.7h1.2L36.4,72.3H35.3z"/>
				<path id="Tracé_901" class="st1" d="M34.1,72.3L72,6.7h1.2L35.3,72.3H34.1z"/>
				<path id="Tracé_902" class="st1" d="M32.9,72.3L70.8,6.7H72L34.1,72.3H32.9z"/>
				<path id="Tracé_903" class="st1" d="M31.8,72.3L69.6,6.7h1.2L32.9,72.3H31.8z"/>
				<path id="Tracé_904" class="st1" d="M30.6,72.3L68.5,6.7h1.2L31.8,72.3H30.6z"/>
				<path id="Tracé_905" class="st1" d="M29.5,72.3L67.3,6.7h1.2L30.6,72.3H29.5z"/>
				<path id="Tracé_906" class="st1" d="M28.3,72.3L66.1,6.7h1.2L29.5,72.3H28.3z"/>
				<path id="Tracé_907" class="st1" d="M27.1,72.3L65,6.7h1.2L28.3,72.3H27.1z"/>
				<path id="Tracé_908" class="st1" d="M26,72.3L63.8,6.7H65L27.1,72.3H26z"/>
				<path id="Tracé_909" class="st1" d="M24.8,72.3L62.7,6.7h1.2L26,72.3H24.8z"/>
				<path id="Tracé_910" class="st1" d="M23.6,72.3L61.5,6.7h1.2L24.8,72.3H23.6z"/>
				<path id="Tracé_911" class="st1" d="M22.5,72.3L60.3,6.7h1.2L23.6,72.3H22.5z"/>
				<path id="Tracé_912" class="st1" d="M21.3,72.3L59.2,6.7h1.2L22.5,72.3H21.3z"/>
				<path id="Tracé_913" class="st1" d="M20.1,72.3L58,6.7h1.2L21.3,72.3H20.1z"/>
				<path id="Tracé_914" class="st1" d="M19,72.3L56.8,6.7H58L20.1,72.3H19z"/>
				<path id="Tracé_915" class="st1" d="M17.8,72.3L55.7,6.7h1.2L19,72.3H17.8z"/>
				<path id="Tracé_916" class="st1" d="M16.6,72.3L54.5,6.7h1.2L17.8,72.3H16.6z"/>
				<path id="Tracé_917" class="st1" d="M15.5,72.3L53.3,6.7h1.2L16.6,72.3H15.5z"/>
				<path id="Tracé_918" class="st1" d="M14.3,72.3L52.2,6.7h1.2L15.5,72.3H14.3z"/>
				<path id="Tracé_919" class="st1" d="M13.2,72.3L51,6.7h1.2L14.3,72.3H13.2z"/>
				<path id="Tracé_920" class="st1" d="M12,72.3L49.8,6.7H51L13.2,72.3H12z"/>
				<path id="Tracé_921" class="st1" d="M10.8,72.3L48.7,6.7h1.2L12,72.3H10.8z"/>
				<path id="Tracé_922" class="st1" d="M9.7,72.3L47.5,6.7h1.2L10.8,72.3H9.7z"/>
				<path id="Tracé_923" class="st1" d="M8.5,72.3L46.4,6.7h1.2L9.7,72.3H8.5z"/>
				<path id="Tracé_924" class="st1" d="M7.3,72.3L45.2,6.7h1.2L8.5,72.3H7.3z"/>
				<path id="Tracé_925" class="st1" d="M6.6,71.5L44,6.7h1.2L7.3,72.3H6.6V71.5z"/>
				<path id="Tracé_926" class="st1" d="M6.6,69.5L42.9,6.7H44L6.6,71.5V69.5z"/>
				<path id="Tracé_927" class="st1" d="M6.6,67.5L41.7,6.7h1.2L6.6,69.5V67.5z"/>
				<path id="Tracé_928" class="st1" d="M6.6,65.5L40.5,6.7h1.2L6.6,67.5V65.5z"/>
				<path id="Tracé_929" class="st1" d="M6.6,63.5L39.4,6.7h1.2l-34,58.8V63.5z"/>
				<path id="Tracé_930" class="st1" d="M6.6,61.5L38.2,6.7h1.2L6.6,63.5V61.5z"/>
				<path id="Tracé_931" class="st1" d="M6.6,59.4L37,6.7h1.2L6.6,61.4V59.4z"/>
				<path id="Tracé_932" class="st1" d="M6.6,57.4L35.9,6.7H37L6.6,59.4V57.4z"/>
				<path id="Tracé_933" class="st1" d="M6.6,55.4L34.7,6.7h1.2L6.6,57.4V55.4z"/>
				<path id="Tracé_934" class="st1" d="M6.6,53.4L33.5,6.7h1.2L6.6,55.4V53.4z"/>
				<path id="Tracé_935" class="st1" d="M6.6,51.4L32.4,6.7h1.2l-27,46.7V51.4z"/>
				<path id="Tracé_936" class="st1" d="M6.6,49.3L31.2,6.7h1.2L6.6,51.4V49.3z"/>
				<path id="Tracé_937" class="st1" d="M6.6,47.3L30.1,6.7h1.2L6.6,49.3V47.3z"/>
				<path id="Tracé_938" class="st1" d="M6.6,45.3L28.9,6.7h1.2L6.6,47.3V45.3z"/>
				<path id="Tracé_939" class="st1" d="M28.9,6.7L6.6,45.3V6.7H28.9z"/>
				<path id="Tracé_940" class="st1" d="M72.2,78.9L94,41.2v37.7H72.2z"/>
				<path id="Tracé_941" class="st1" d="M71.1,78.9L94,39.2v2L72.2,78.9H71.1z"/>
				<path id="Tracé_942" class="st1" d="M69.9,78.9L94,37.1v2L71.1,78.9H69.9z"/>
				<path id="Tracé_943" class="st1" d="M68.7,78.9L94,35.1v2L69.9,78.9H68.7z"/>
				<path id="Tracé_944" class="st1" d="M67.6,78.9L94,33.1v2L68.7,78.9H67.6z"/>
				<path id="Tracé_945" class="st1" d="M66.4,78.9L94,31.1v2L67.6,78.9H66.4z"/>
				<path id="Tracé_946" class="st1" d="M65.2,78.9L94,29.1v2L66.4,78.9H65.2z"/>
				<path id="Tracé_947" class="st1" d="M64.1,78.9L94,27v2L65.2,78.9H64.1z"/>
				<path id="Tracé_948" class="st1" d="M62.9,78.9L94,25v2L64.1,78.9H62.9z"/>
				<path id="Tracé_949" class="st1" d="M61.7,78.9L94,23v2L62.9,78.9H61.7z"/>
				<path id="Tracé_950" class="st1" d="M60.6,78.9L94,21v2L61.7,78.9H60.6z"/>
				<path id="Tracé_951" class="st1" d="M59.4,78.9L94,19v2L60.6,78.9H59.4z"/>
				<path id="Tracé_952" class="st1" d="M58.2,78.9L94,17v2L59.4,78.9H58.2z"/>
				<path id="Tracé_953" class="st1" d="M57.1,78.9l36.9-64v2l-35.8,62H57.1z"/>
				<path id="Tracé_954" class="st1" d="M55.9,78.9l38.1-66v2l-36.9,64H55.9z"/>
				<path id="Tracé_955" class="st1" d="M54.8,78.9l39.2-68v2l-38.1,66H54.8z"/>
				<path id="Tracé_956" class="st1" d="M53.6,78.9L94,8.9v2l-39.2,68H53.6z"/>
				<path id="Tracé_957" class="st1" d="M52.4,78.9L94,6.9v2l-40.4,70H52.4z"/>
				<path id="Tracé_958" class="st1" d="M51.3,78.9L94,4.9v2l-41.6,72H51.3z"/>
				<path id="Tracé_959" class="st1" d="M50.1,78.9L94,2.8v2l-42.7,74L50.1,78.9L50.1,78.9z"/>
				<path id="Tracé_960" class="st1" d="M48.9,78.9L94,0.8v2l-43.9,76L48.9,78.9L48.9,78.9z"/>
				<path id="Tracé_961" class="st1" d="M47.8,78.9L93.2,0.1H94v0.7L48.9,78.9H47.8z"/>
				<path id="Tracé_962" class="st1" d="M46.6,78.9L92.1,0.1h1.2L47.8,78.9H46.6z"/>
				<path id="Tracé_963" class="st1" d="M45.4,78.9L90.9,0.1h1.2L46.6,78.9H45.4z"/>
				<path id="Tracé_964" class="st1" d="M44.3,78.9L89.8,0.1H91L45.4,78.9H44.3z"/>
				<path id="Tracé_965" class="st1" d="M43.1,78.9L88.6,0.1h1.2L44.3,78.9H43.1z"/>
				<path id="Tracé_966" class="st1" d="M41.9,78.9L87.4,0.1h1.2L43.1,78.9H41.9z"/>
				<path id="Tracé_967" class="st1" d="M40.8,78.9L86.3,0.1h1.2L41.9,78.9H40.8z"/>
				<path id="Tracé_968" class="st1" d="M39.6,78.9L85.1,0.1h1.2L40.8,78.9H39.6z"/>
				<path id="Tracé_969" class="st1" d="M38.5,78.9L83.9,0.1h1.2L39.6,78.9H38.5z"/>
				<path id="Tracé_970" class="st1" d="M37.3,78.9L82.8,0.1H84L38.5,78.9H37.3z"/>
				<path id="Tracé_971" class="st1" d="M36.1,78.9L81.6,0.1h1.2L37.3,78.9H36.1z"/>
				<path id="Tracé_972" class="st1" d="M35,78.9L80.4,0.1h1.2L36.1,78.9H35z"/>
				<path id="Tracé_973" class="st1" d="M33.8,78.9L79.3,0.1h1.2L35,78.9H33.8z"/>
				<path id="Tracé_974" class="st1" d="M32.6,78.9L78.1,0.1h1.2L33.8,78.9H32.6z"/>
				<path id="Tracé_975" class="st1" d="M31.5,78.9L76.9,0.1h1.2L32.6,78.9H31.5z"/>
				<path id="Tracé_976" class="st1" d="M30.3,78.9L75.8,0.1H77L31.5,78.9H30.3z"/>
				<path id="Tracé_977" class="st1" d="M29.1,78.9L74.6,0.1h1.2L30.3,78.9H29.1z"/>
				<path id="Tracé_978" class="st1" d="M28,78.9L73.5,0.1h1.2L29.1,78.9H28z"/>
				<path id="Tracé_979" class="st1" d="M26.8,78.9L72.3,0.1h1.2L28,78.9H26.8z"/>
				<path id="Tracé_980" class="st1" d="M25.6,78.9L71.1,0.1h1.2L26.8,78.9H25.6z"/>
				<path id="Tracé_981" class="st1" d="M24.5,78.9L70,0.1h1.2L25.6,78.9H24.5z"/>
				<path id="Tracé_982" class="st1" d="M23.3,78.9L68.8,0.1H70L24.5,78.9H23.3z"/>
				<path id="Tracé_983" class="st1" d="M22.2,78.9L67.6,0.1h1.2L23.3,78.9H22.2z"/>
				<path id="Tracé_984" class="st1" d="M21,78.9L66.5,0.1h1.2L22.2,78.9H21z"/>
				<path id="Tracé_985" class="st1" d="M19.8,78.9L65.3,0.1h1.2L21,78.9H19.8z"/>
				<path id="Tracé_986" class="st1" d="M18.7,78.9L64.1,0.1h1.2L19.8,78.9H18.7z"/>
				<path id="Tracé_987" class="st1" d="M17.5,78.9L63,0.1h1.2L18.7,78.9H17.5z"/>
				<path id="Tracé_988" class="st1" d="M16.3,78.9L61.8,0.1H63L17.5,78.9H16.3z"/>
				<path id="Tracé_989" class="st1" d="M15.2,78.9L60.6,0.1h1.2L16.3,78.9H15.2z"/>
				<path id="Tracé_990" class="st1" d="M14,78.9L59.5,0.1h1.2L15.2,78.9H14z"/>
				<path id="Tracé_991" class="st1" d="M12.8,78.9L58.3,0.1h1.2L14,78.9H12.8z"/>
				<path id="Tracé_992" class="st1" d="M11.7,78.9L57.2,0.1h1.2L12.8,78.9H11.7z"/>
				<path id="Tracé_993" class="st1" d="M10.5,78.9L56,0.1h1.2L11.7,78.9H10.5z"/>
				<path id="Tracé_994" class="st1" d="M9.3,78.9L54.8,0.1H56L10.5,78.9H9.3z"/>
				<path id="Tracé_995" class="st1" d="M8.2,78.9L53.7,0.1h1.2L9.3,78.9H8.2z"/>
				<path id="Tracé_996" class="st1" d="M7,78.9L52.5,0.1h1.2L8.2,78.9H7z"/>
				<path id="Tracé_997" class="st1" d="M5.9,78.9L51.3,0.1h1.2L7,78.9H5.9z"/>
				<path id="Tracé_998" class="st1" d="M4.7,78.9L50.2,0.1h1.2L5.9,78.9H4.7z"/>
				<path id="Tracé_999" class="st1" d="M3.5,78.9L49,0.1h1.2L4.7,78.9H3.5z"/>
				<path id="Tracé_1000" class="st1" d="M2.4,78.9L47.8,0.1H49L3.5,78.9H2.4z"/>
				<path id="Tracé_1001" class="st1" d="M1.2,78.9L46.7,0.1h1.2L2.4,78.9H1.2z"/>
				<path id="Tracé_1002" class="st1" d="M0,78.9L45.5,0.1h1.2L1.2,78.9H0z"/>
				<path id="Tracé_1003" class="st1" d="M0,76.9L44.3,0.1h1.2L0,78.9l0,0V76.9z"/>
				<path id="Tracé_1004" class="st1" d="M0,74.9L43.2,0.1h1.2L0,76.9V74.9z"/>
				<path id="Tracé_1005" class="st1" d="M0,72.9L42,0.1h1.2L0,74.9V72.9z"/>
				<path id="Tracé_1006" class="st1" d="M0,70.9L40.9,0.1H42L0,72.9V70.9z"/>
				<path id="Tracé_1007" class="st1" d="M0,68.9L39.7,0.1h1.2L0,70.9V68.9z"/>
				<path id="Tracé_1008" class="st1" d="M0,66.8L38.5,0.1h1.2L0,68.9V66.8z"/>
				<path id="Tracé_1009" class="st1" d="M0,64.8L37.4,0.1h1.2L0,66.8V64.8z"/>
				<path id="Tracé_1010" class="st1" d="M0,62.8L36.2,0.1h1.2L0,64.8V62.8z"/>
				<path id="Tracé_1011" class="st1" d="M0,60.8L35,0.1h1.2L0,62.8V60.8z"/>
				<path id="Tracé_1012" class="st1" d="M0,58.8L33.9,0.1H35L0,60.8V58.8z"/>
				<path id="Tracé_1013" class="st1" d="M0,56.8L32.7,0.1h1.2L0,58.8V56.8z"/>
				<path id="Tracé_1014" class="st1" d="M32.7,0.1L0,56.8V0.1H32.7z"/>
			</g>
		</g>
	</g>
</g>
</svg>
